# xmcd
#
# Track frame offsets:
#	150
#	26262
#	56973
#	88076
#	115377
#	151851
#	173002
#	200333
#	223388
#
# Disc length: 3275 seconds
#
# Revision: 0
# Processed by: cddbd v1.5.2PL0 Copyright (c) Steve Scherf et al.
# Submitted via: EZCDAudioConverter 2.1.5.1
#
DISCID=7a0cc909
DTITLE=Olli Hirvonen - Detachment
DYEAR=2014
DGENRE=
TTITLE0=The Gift
TTITLE1=One On One
TTITLE2=Lightness
TTITLE3=Midsummer Dream
TTITLE4=Detachment
TTITLE5=Leverkühn
TTITLE6=The Other Inside
TTITLE7=Submission
TTITLE8=Selfless
EXTD=
EXTT0=
EXTT1=
EXTT2=
EXTT3=
EXTT4=
EXTT5=
EXTT6=
EXTT7=
EXTT8=
PLAYORDER=
